<svg xmlns="http://www.w3.org/2000/svg" width="708" height="402" viewBox="0 0 708 402">
  <g id="logo" transform="translate(148 -58.303)">
    <g id="Group_1" data-name="Group 1">
      <path id="Path_1" data-name="Path 1" d="M404.72,82.944h-27.2v-9.28a8,8,0,0,0-5.76-8,225.345,225.345,0,0,0-57.68-7.36c-32,0-75.6,7.2-107.84,40-32-33.12-75.92-40-107.84-40a225.345,225.345,0,0,0-57.68,7.36,8,8,0,0,0-5.76,8v9.2H8a8,8,0,0,0-8,8v255.52a7.981,7.981,0,0,0,11.92,6.96c.8-.4,80.8-44.16,192.48-16h1.92a8.009,8.009,0,0,0,1.92,0c112-28.4,192,15.28,192.48,16a8,8,0,0,0,12-6.88V90.944A8,8,0,0,0,404.72,82.944ZM16,333.664V98.944H35.12v200.64a8,8,0,0,0,9.2,8,350.093,350.093,0,0,1,50-4,207.516,207.516,0,0,1,68.32,10.32A294.1,294.1,0,0,0,16,333.664Zm78.32-46a351.992,351.992,0,0,0-43.52,2.8V79.984A220.645,220.645,0,0,1,98.24,74.7c29.92,0,71.2,6.88,99.84,39.2l.24,199.28C181.68,302.3,149.2,287.664,94.32,287.664Zm120-173.76c28.64-32,69.92-39.2,99.84-39.2a221.611,221.611,0,0,1,47.44,5.28v210.48a351.9,351.9,0,0,0-43.28-2.88c-54.56,0-87.12,14.64-104,25.52Zm182.32,219.76A294.158,294.158,0,0,0,249.68,313.9a208.008,208.008,0,0,1,68.64-10.32,349.99,349.99,0,0,1,50.32,3.92,8,8,0,0,0,9.2-8V98.944h19.12Z"/>
    </g>
    <text id="CURSOS_4Free" data-name="CURSOS 4Free" transform="translate(206 449.303)" font-size="93" font-family="HiraMaruProN-W4, Hiragino Maru Gothic ProN"><tspan x="-353.447" y="0">CURSOS 4Free</tspan></text>
  </g>
</svg>
